<?xml version="1.0" encoding="utf-8"?>
<!-- Generator: Adobe Illustrator 16.0.3, SVG Export Plug-In . SVG Version: 6.00 Build 0)  -->
<!DOCTYPE svg PUBLIC "-//W3C//DTD SVG 1.1//EN" "http://www.w3.org/Graphics/SVG/1.1/DTD/svg11.dtd">
<svg version="1.1" id="Layer_1" xmlns="http://www.w3.org/2000/svg" xmlns:xlink="http://www.w3.org/1999/xlink" x="0px" y="0px"
	 width="1000px" height="1000px" viewBox="0 0 1000 1000" enable-background="new 0 0 1000 1000" xml:space="preserve">
<g id="Layer_1_1_" display="none" opacity="0.6">
	<rect x="0" y="0.094" display="inline" fill="#FFFFFF" width="1000" height="999.906"/>
	<g display="inline" opacity="0.6">
		<rect x="0" fill="#F7E4BB" width="1000" height="1000"/>
		
			<rect x="187.516" y="-202.734" transform="matrix(-0.7071 -0.7071 0.7071 -0.7071 195.269 675.4045)" opacity="0.6" fill="#1C75BC" fill-opacity="0.5" enable-background="new    " width="99.999" height="999.989"/>
		
			<rect x="322.047" y="-193.427" transform="matrix(-0.7071 -0.7071 0.7071 -0.7071 338.1688 753.2079)" opacity="0.6" fill="#1C75BC" fill-opacity="0.5" enable-background="new    " width="6.063" height="999.988"/>
		
			<rect x="337.493" y="-178.783" transform="matrix(-0.7072 -0.707 0.707 -0.7072 353.9779 789.0209)" opacity="0.6" fill="#1C75BC" fill-opacity="0.5" enable-background="new    " width="5.76" height="999.99"/>
		
			<rect x="667.987" y="-9.767" transform="matrix(-0.7073 -0.7069 0.7069 -0.7073 623.6417 1734.2161)" opacity="0.6" fill="#1C75BC" fill-opacity="0.5" enable-background="new    " width="5.76" height="1495.517"/>
		
			<rect x="677.314" y="9.01" transform="matrix(-0.7072 -0.707 0.707 -0.7072 626.17 1772.8602)" opacity="0.6" fill="#1C75BC" fill-opacity="0.5" enable-background="new    " width="5.76" height="1495.516"/>
		
			<rect x="515.487" y="13.487" transform="matrix(-0.7071 -0.7071 0.7071 -0.7071 438.3809 1672.0632)" opacity="0.6" fill="#1C75BC" fill-opacity="0.5" enable-background="new    " width="99.999" height="1463.506"/>
		
			<rect x="174.528" y="63.99" transform="matrix(0.7071 -0.7071 0.7071 0.7071 -496.9133 391.8326)" opacity="0.6" fill="#DA1C5C" fill-opacity="0.5" enable-background="new    " width="99.999" height="1463.507"/>
		
			<rect x="461.413" y="-396.52" transform="matrix(0.7071 -0.7071 0.7071 0.7071 -241.3491 523.6379)" opacity="0.6" fill="#DA1C5C" fill-opacity="0.5" enable-background="new    " width="99.999" height="1899.346"/>
		
			<rect x="833.848" y="118.288" transform="matrix(-0.7071 -0.7071 0.7071 -0.7071 907.7534 2076.0847)" opacity="0.6" fill="#1C75BC" fill-opacity="0.5" enable-background="new    " width="100" height="1463.506"/>
		
			<rect x="383.342" y="-237.88" transform="matrix(0.7071 -0.7071 0.7071 0.7071 -311.8378 450.0517)" opacity="0.6" fill="#DA1C5C" fill-opacity="0.5" enable-background="new    " width="7.999" height="1678.656"/>
		
			<rect x="136.087" y="-25.085" transform="matrix(0.7071 -0.7071 0.7071 0.7071 -534.7261 337.5428)" opacity="0.6" fill="#DA1C5C" fill-opacity="0.5" enable-background="new    " width="8.001" height="1678.657"/>
		
			<rect x="117.272" y="-10.328" transform="matrix(0.7071 -0.7071 0.7071 0.7071 -550.6721 328.5615)" opacity="0.6" fill="#DA1C5C" fill-opacity="0.5" enable-background="new    " width="8.001" height="1678.657"/>
		
			<rect x="98.94" y="5.005" transform="matrix(0.707 -0.7072 0.7072 0.707 -566.9288 320.1472)" opacity="0.6" fill="#DA1C5C" fill-opacity="0.5" enable-background="new    " width="8" height="1678.657"/>
		
			<rect x="414.087" y="-237.882" transform="matrix(0.7072 -0.707 0.707 0.7072 -302.8206 471.7292)" opacity="0.6" fill="#DA1C5C" fill-opacity="0.5" enable-background="new    " width="8" height="1678.655"/>
		
			<rect x="451.458" y="-232.256" transform="matrix(0.7071 -0.7071 0.7071 0.7071 -295.8634 499.865)" opacity="0.6" fill="#DA1C5C" fill-opacity="0.5" enable-background="new    " width="8.001" height="1678.656"/>
		<g>
			
				<rect x="574.576" y="493.493" fill="#E8E6D9" stroke="#594A42" stroke-width="6" stroke-miterlimit="10" width="540.374" height="604.71"/>
			<g>
				<rect x="577.403" y="496.344" fill="#DA1C5C" fill-opacity="0.4" width="509.999" height="81.928"/>
				<rect x="577.403" y="660.197" fill="#DA1C5C" fill-opacity="0.4" width="509.999" height="81.927"/>
				<rect x="576.306" y="824.051" fill="#DA1C5C" fill-opacity="0.4" width="510" height="81.928"/>
				<rect x="576.306" y="987.904" fill="#DA1C5C" fill-opacity="0.4" width="510" height="81.928"/>
				<rect x="659.328" y="496.344" fill="#DA1C5C" fill-opacity="0.4" width="81.928" height="571.525"/>
				<rect x="823.182" y="496.344" fill="#DA1C5C" fill-opacity="0.4" width="81.926" height="571.525"/>
				<rect x="987.033" y="496.344" fill="#DA1C5C" fill-opacity="0.4" width="81.928" height="571.525"/>
			</g>
			<g>
				<polygon fill="#594A42" points="963.592,466.057 969.7,493.294 963.592,518.264 958.594,493.294 				"/>
				<polygon fill="#594A42" points="917.592,466.057 923.7,493.294 917.592,518.264 912.594,493.294 				"/>
				<polygon fill="#594A42" points="866.092,466.057 872.2,493.294 866.092,518.264 861.094,493.294 				"/>
				<polygon fill="#594A42" points="817.072,466.057 823.182,493.294 817.072,518.264 812.073,493.294 				"/>
				<polygon fill="#594A42" points="766.519,466.057 772.628,493.294 766.519,518.264 761.52,493.294 				"/>
				<polygon fill="#594A42" points="717.018,466.057 723.127,493.294 717.018,518.264 712.02,493.294 				"/>
				<polygon fill="#594A42" points="661.656,466.057 667.766,493.294 661.656,518.264 656.657,493.294 				"/>
				<polygon fill="#594A42" points="611.271,466.057 617.381,493.294 611.271,518.264 606.273,493.294 				"/>
			</g>
			<g>
				<polygon fill="#594A42" points="548.474,532.308 575.712,526.199 600.68,532.308 575.712,537.308 				"/>
				<polygon fill="#594A42" points="548.474,579.829 575.712,573.72 600.68,579.829 575.712,584.827 				"/>
				<polygon fill="#594A42" points="548.474,624.329 575.712,618.22 600.68,624.329 575.712,629.327 				"/>
				<polygon fill="#594A42" points="548.474,670.329 575.712,664.22 600.68,670.329 575.712,675.327 				"/>
				<polygon fill="#594A42" points="548.474,714.329 575.712,708.22 600.68,714.329 575.712,719.327 				"/>
				<polygon fill="#594A42" points="548.474,756.829 575.712,750.72 600.68,756.829 575.712,761.827 				"/>
				<polygon fill="#594A42" points="548.474,801.957 575.712,795.848 600.68,801.957 575.712,806.955 				"/>
				<polygon fill="#594A42" points="548.474,845.732 575.712,839.623 600.68,845.732 575.712,850.73 				"/>
				<polygon fill="#594A42" points="548.474,892.232 575.712,886.123 600.68,892.232 575.712,897.23 				"/>
				<polygon fill="#594A42" points="548.474,937.232 575.712,931.123 600.68,937.232 575.712,942.23 				"/>
				<polygon fill="#594A42" points="548.474,985.232 575.712,979.123 600.68,985.232 575.712,990.23 				"/>
			</g>
		</g>
		<g>
			
				<rect x="-92.943" y="-101.403" fill="#F78F3D" stroke="#594A42" stroke-width="6" stroke-miterlimit="10" width="480.185" height="503.997"/>
			<g>
				<circle fill="#FDC17E" cx="43.723" cy="35.597" r="33"/>
				<circle fill="#FDC17E" cx="-14.444" cy="126.763" r="33"/>
				<circle fill="#FDC17E" cx="43.723" cy="218.097" r="33"/>
				<circle fill="#FDC17E" cx="-14.444" cy="309.263" r="33"/>
				<circle fill="#FDC17E" cx="102.337" cy="126.93" r="33"/>
				<circle fill="#FDC17E" cx="102.337" cy="309.43" r="33"/>
				<circle fill="#FDC17E" cx="160.728" cy="35.597" r="33"/>
				<circle fill="#FDC17E" cx="160.728" cy="218.097" r="33"/>
				<circle fill="#FDC17E" cx="218.956" cy="126.847" r="33"/>
				<circle fill="#FDC17E" cx="218.956" cy="309.347" r="33"/>
				<circle fill="#FDC17E" cx="277.347" cy="35.471" r="33"/>
				<circle fill="#FDC17E" cx="277.347" cy="217.971" r="33"/>
				<circle fill="#FDC17E" cx="335.737" cy="126.658" r="33"/>
				<circle fill="#FDC17E" cx="335.737" cy="309.158" r="33"/>
				<path fill="#FDC17E" d="M160.565,367.68c-17.899,0-32.461,14.254-32.976,32.029h65.951
					C193.026,381.934,178.466,367.68,160.565,367.68z"/>
				<path fill="#FDC17E" d="M277.347,367.533c-17.949,0-32.54,14.332-32.979,32.176h65.958
					C309.887,381.865,295.296,367.533,277.347,367.533z"/>
				<path fill="#FDC17E" d="M361.047,217.939c0,14.688,9.6,27.13,22.865,31.407v-62.815
					C370.646,190.809,361.047,203.25,361.047,217.939z"/>
				<path fill="#FDC17E" d="M361.065,399.709h22.848v-30.678C370.867,373.237,361.378,385.34,361.065,399.709z"/>
				<path fill="#FDC17E" d="M44.17,367.597c-17.928,0-32.506,14.298-32.979,32.112h65.955
					C76.676,381.895,62.098,367.597,44.17,367.597z"/>
				<path fill="#FDC17E" d="M361.047,35.502c0,14.689,9.6,27.131,22.865,31.408V4.094C370.646,8.371,361.047,20.813,361.047,35.502z
					"/>
			</g>
			<g>
				<polygon fill="#594A42" points="348.243,376.49 354.354,403.728 348.243,428.696 343.244,403.728 				"/>
				<polygon fill="#594A42" points="299.993,376.49 306.104,403.728 299.993,428.696 294.995,403.728 				"/>
				<polygon fill="#594A42" points="252.994,376.49 259.104,403.728 252.994,428.696 247.995,403.728 				"/>
				<polygon fill="#594A42" points="206.994,376.49 213.104,403.728 206.994,428.696 201.995,403.728 				"/>
				<polygon fill="#594A42" points="155.494,376.49 161.604,403.728 155.494,428.696 150.495,403.728 				"/>
				<polygon fill="#594A42" points="106.474,376.49 112.583,403.728 106.474,428.696 101.476,403.728 				"/>
				<polygon fill="#594A42" points="55.921,376.49 62.03,403.728 55.921,428.696 50.922,403.728 				"/>
				<polygon fill="#594A42" points="6.42,376.49 12.529,403.728 6.42,428.696 1.421,403.728 				"/>
			</g>
			<g>
				<polygon fill="#594A42" points="364.337,5.795 391.574,-0.314 416.544,5.795 391.574,10.793 				"/>
				<polygon fill="#594A42" points="364.337,49.795 391.574,43.686 416.544,49.795 391.574,54.793 				"/>
				<polygon fill="#594A42" points="364.337,92.295 391.574,86.186 416.544,92.295 391.574,97.293 				"/>
				<polygon fill="#594A42" points="364.337,137.423 391.574,131.313 416.544,137.423 391.574,142.421 				"/>
				<polygon fill="#594A42" points="364.337,181.198 391.574,175.089 416.544,181.198 391.574,186.196 				"/>
				<polygon fill="#594A42" points="364.337,227.698 391.574,221.589 416.544,227.698 391.574,232.696 				"/>
				<polygon fill="#594A42" points="364.337,272.698 391.574,266.589 416.544,272.698 391.574,277.696 				"/>
				<polygon fill="#594A42" points="364.337,320.698 391.574,314.589 416.544,320.698 391.574,325.696 				"/>
				<polygon fill="#594A42" points="364.337,364.89 391.574,358.78 416.544,364.89 391.574,369.888 				"/>
			</g>
		</g>
		<path fill="#DA1C5C" d="M1583.035-66.881H1064.95v-183.991H-539.357v105.995h-31.063v1580.844h314.549v204.066h1499.925V1314.55
			h338.981V-66.881L1583.035-66.881z M1000,1000H0V0.094h1000V1000z"/>
	</g>
</g>
<g id="Layer_2">
	<g>
		<path fill="#8DC63F" stroke="#006838" stroke-width="14" stroke-miterlimit="10" d="M681.112,308.053
			c-96.617,66.283-170.001,64.989-170.001,64.989s-26.589-112.975,136.063-198.737c0,0,123.369-66.674,236.355,2.395
			c0,0-59.089,9.981-114.585,59.487C716.823,282.687,681.112,308.053,681.112,308.053z"/>
		<path fill="#8DC63F" stroke="#006838" stroke-width="14" stroke-miterlimit="10" d="M746.588,464.618
			c-26.351,6.434-56.292,29.483-138.938,45.974c-82.645,16.49-136.46-17.541-136.46-17.541s37.131-64.825,123.327-66.021
			C680.714,425.831,746.588,464.618,746.588,464.618z"/>
		<path fill="#009444" stroke="#006838" stroke-width="14" stroke-miterlimit="10" d="M251.922,320.43
			c0,0,32.216,37.23,44.315,55.096c81.708,120.647,134.601,108.642,134.601,108.642S481.568,357.56,251.922,320.43z"/>
		<path fill="#8DC63F" stroke="#006838" stroke-width="14" stroke-miterlimit="10" d="M702.109,645.201
			c-50.946,0.399-85.226,42.238-145.399,48.383c-95.192,9.723-128.599-35.869-128.599-35.869s9.242-41.238,133.195-47.297
			C634.281,606.854,702.109,645.201,702.109,645.201z"/>
		<path fill="#009444" stroke="#006838" stroke-width="14" stroke-miterlimit="10" d="M182.179,529.234
			c32.775,17.213,62.157,60.688,62.157,60.688c53.5,69.467,139.07,48,139.07,48s-0.133-71.715-76.39-103.098
			C230.762,503.443,182.179,529.234,182.179,529.234z"/>
		<path fill="none" stroke="#006838" stroke-width="14" stroke-miterlimit="10" d="M513.492,367.313
			c-30.447,44.703-61.509,106.731-84.306,191.468c-73.508,273.227-210.802,321.465-210.802,321.465"/>
		<path fill="none" stroke="#006838" stroke-width="10" stroke-miterlimit="10" d="M477.396,490.209
			c-24.96,10.941-33.434,20.383-33.434,20.383s-3.342-11.87-12.696-30.182"/>
		<path fill="none" stroke="#006838" stroke-width="10" stroke-miterlimit="10" d="M387.812,676.404
			c0,0,13.192-11.813,43.434-20.008"/>
		<path fill="none" stroke="#006838" stroke-width="10" stroke-miterlimit="10" d="M395.803,659.094c0,0-3.536-9.76-13.577-22.721"
			/>
		<path fill="none" stroke="#006838" stroke-width="14" stroke-miterlimit="10" d="M427.99,563.18"/>
		<path fill="none" stroke="#006838" stroke-width="14" stroke-miterlimit="10" d="M366.107,721.67
			c0,0-61.559,135.871-144.623,166.713"/>
		<path fill="#006838" d="M622.523,252.059c-51.703,29.344-101.311,119.075-101.311,119.075l-11.716-9.183
			c0,0,53.237-84.441,112.127-111.19"/>
		<path fill="#006838" d="M595.372,464.857c-102.007,9.182-117.977,31.489-117.977,31.489l0.674-12.801
			c0,0,28.073-22.558,117.303-20.486"/>
		<path fill="#006838" d="M551.357,642.621c-100.61,5.092-117.978,22.799-117.978,22.799l0.674-12.801
			c0,0,29.47-13.496,117.304-11.793"/>
		<path fill="#006838" d="M369.151,396.336c37.429,26.799,66.45,79.799,66.45,79.799l-7.313,8.363c0,0-19.913-48.936-60.187-86.814"
			/>
		<path fill="#006838" d="M307.018,571.102c41.904,19.058,80.625,65.447,80.625,65.447l-5.557,9.619
			c0,0-28.998-44.166-75.835-73.541"/>
	</g>
	<g display="none">
		<path display="inline" fill="#8DC63F" stroke="#006838" stroke-width="14" stroke-miterlimit="10" d="M673.334,239.667
			c-80.668,55.34-141.936,54.26-141.936,54.26S509.198,199.604,645,128c0,0,103-55.667,197.334,2c0,0-49.334,8.333-95.668,49.667
			C703.149,218.488,673.334,239.667,673.334,239.667z"/>
		<path display="inline" fill="#8DC63F" stroke="#006838" stroke-width="14" stroke-miterlimit="10" d="M728,370.384
			c-22,5.372-47,24.616-116,38.384s-113.933-14.645-113.933-14.645S529.068,340,601.033,339C673,338,728,370.384,728,370.384z"/>
		<path display="inline" fill="#009444" stroke="#006838" stroke-width="14" stroke-miterlimit="10" d="M315,250
			c0,0,26.897,31.083,37,46c68.218,100.729,112.378,90.706,112.378,90.706S506.733,281,315,250z"/>
		<path display="inline" fill="#8DC63F" stroke="#006838" stroke-width="14" stroke-miterlimit="10" d="M690.863,521.154
			c-42.534,0.334-71.155,35.265-121.395,40.396C489.99,569.666,462.1,531.602,462.1,531.602s7.716-34.431,111.206-39.486
			C634.234,489.138,690.863,521.154,690.863,521.154z"/>
		<path display="inline" fill="#009444" stroke="#006838" stroke-width="14" stroke-miterlimit="10" d="M256.771,424.333
			C284.136,438.704,308.666,475,308.666,475c44.668,58,116.111,40.077,116.111,40.077S424.666,455.2,361,429
			C297.333,402.799,256.771,424.333,256.771,424.333z"/>
		<path display="inline" fill="none" stroke="#006838" stroke-width="14" stroke-miterlimit="10" d="M533.388,289.144
			C507.966,326.466,482.032,378.254,463,449c-61.372,228.119-176,268.395-176,268.395"/>
		<path display="inline" fill="none" stroke="#006838" stroke-width="10" stroke-miterlimit="10" d="M503.25,391.75
			c-20.841,9.135-27.914,17.018-27.914,17.018s-2.79-9.911-10.601-25.2"/>
		<path display="inline" fill="none" stroke="#006838" stroke-width="10" stroke-miterlimit="10" d="M428.455,547.206
			c0,0,11.015-9.863,36.264-16.706"/>
		<path display="inline" fill="none" stroke="#006838" stroke-width="10" stroke-miterlimit="10" d="M435.127,532.753
			c0,0-2.953-8.147-11.336-18.971"/>
		<path display="inline" fill="none" stroke="#006838" stroke-width="14" stroke-miterlimit="10" d="M462,452.674"/>
		<path display="inline" fill="none" stroke="#006838" stroke-width="14" stroke-miterlimit="10" d="M410.332,585
			c0,0-51.396,113.438-120.745,139.188"/>
		<path display="inline" fill="#006838" d="M624.416,192.917c-43.166,24.5-84.584,99.417-84.584,99.417l-9.78-7.667
			c0,0,44.448-70.5,93.614-92.833"/>
		<path display="inline" fill="#006838" d="M601.75,370.583c-85.166,7.667-98.5,26.292-98.5,26.292l0.563-10.688
			c0,0,23.438-18.834,97.938-17.104"/>
		<path display="inline" fill="#006838" d="M565,519c-84,4.25-98.5,19.033-98.5,19.033l0.563-10.688c0,0,24.604-11.267,97.938-9.845
			"/>
		<path display="inline" fill="#006838" d="M412.875,313.375C444.125,335.75,468.355,380,468.355,380l-6.104,6.982
			c0,0-16.625-40.857-50.25-72.482"/>
		<path display="inline" fill="#006838" d="M361,459.288c34.985,15.91,67.313,54.642,67.313,54.642l-4.64,8.03
			c0,0-24.211-36.873-63.315-61.399"/>
	</g>
</g>
</svg>
